<svg xmlns="http://www.w3.org/2000/svg" viewBox="0 0 1280 320" width="1280" height="320" role="img" aria-label="genieacs-ansible"><title>genieacs-ansible</title><defs><path id="m800hyphen" d="M140 260V400H460V260Z"/><path id="m800g" d="M145 -180V-60H300Q342 -60 364 -39Q387 -18 387 19V40L389 145H354L389 180Q389 109 350 70Q311 30 243 30Q160 30 110 88Q60 146 60 245V345Q60 443 110 502Q160 560 243 560Q311 560 350 520Q389 481 389 410L354 445H389L384 550H534V14Q534 -76 472 -128Q411 -180 305 -180ZM297 160Q338 160 361 184Q384 207 384 250V340Q384 383 361 406Q338 430 297 430Q255 430 232 406Q210 383 210 340V250Q210 207 232 184Q255 160 297 160Z"/><path id="m800e" d="M301 -10Q228 -10 174 18Q119 45 90 94Q60 144 60 210V340Q60 406 90 456Q119 505 174 532Q228 560 301 560Q374 560 428 532Q481 505 510 456Q540 406 540 340V240H203V210Q203 158 228 132Q253 105 303 105Q338 105 360 117Q381 129 388 150H535Q517 78 454 34Q390 -10 301 -10ZM397 317V342Q397 393 374 420Q350 447 301 447Q252 447 228 419Q203 391 203 340V325L407 327Z"/><path id="m800n" d="M66 0V550H211V445H255L211 410Q211 480 251 520Q291 560 359 560Q439 560 488 504Q536 448 536 355V0H386V340Q386 383 364 406Q341 430 300 430Q260 430 238 406Q216 383 216 340V0Z"/><path id="m800i" d="M70 0V136H260V415H95V550H400V136H560V0ZM320 637Q279 637 254 658Q230 679 230 715Q230 751 254 772Q279 793 320 793Q361 793 386 772Q410 751 410 715Q410 679 386 658Q361 637 320 637Z"/><path id="m800a" d="M229 -10Q146 -10 98 35Q49 80 49 157Q49 240 106 284Q164 329 272 329H386V370Q386 402 364 421Q341 440 303 440Q268 440 245 424Q222 408 217 380H72Q81 463 144 512Q208 560 308 560Q413 560 474 508Q536 457 536 370V0H391V90H367L392 125Q392 63 347 26Q303 -10 229 -10ZM285 100Q329 100 358 124Q386 147 386 185V244H275Q241 244 220 224Q199 205 199 173Q199 139 222 120Q245 100 285 100Z"/><path id="m800c" d="M303 -10Q230 -10 175 18Q120 45 90 94Q60 144 60 210V340Q60 407 90 456Q120 505 175 532Q230 560 303 560Q412 560 477 505Q542 450 546 355H396Q393 390 368 410Q344 430 303 430Q258 430 234 407Q210 384 210 340V210Q210 167 234 144Q258 120 303 120Q344 120 368 140Q393 159 396 195H546Q542 100 477 45Q412 -10 303 -10Z"/><path id="m800s" d="M277 -10Q209 -10 158 12Q107 33 78 71Q50 109 50 160H200Q200 136 222 122Q243 107 277 107H321Q362 107 384 122Q405 137 405 164Q405 189 386 202Q367 216 327 221L263 229Q160 242 113 279Q66 316 66 392Q66 472 121 516Q176 560 282 560H320Q421 560 481 516Q541 472 541 398H391Q391 418 372 430Q352 443 320 443H282Q245 443 228 430Q211 418 211 393Q211 370 226 358Q242 346 276 341L345 332Q449 319 500 280Q550 241 550 164Q550 80 492 35Q434 -10 321 -10Z"/><path id="m800b" d="M357 -10Q289 -10 250 30Q211 69 211 140L246 105H211V0H66V730H216V580L211 445H246L211 410Q211 481 250 520Q289 560 357 560Q440 560 490 502Q540 443 540 345V205Q540 106 490 48Q440 -10 357 -10ZM303 120Q345 120 368 144Q390 167 390 210V340Q390 383 368 406Q345 430 303 430Q262 430 239 406Q216 383 216 340V210Q216 167 239 144Q262 120 303 120Z"/><path id="m800l" d="M390 0Q332 0 288 24Q244 49 220 93Q195 137 195 195V595H25V730H345V195Q345 168 362 152Q378 135 405 135H565V0Z"/><path id="m500numbersign" d="M79 0 114 191H31V266H127L162 464H64V539H176L210 730H291L256 539H406L440 730H521L486 539H569V464H473L438 266H536V191H424L390 0H309L344 191H194L160 0ZM208 266H357L392 464H243Z"/><path id="m500y" d="M172 -180 251 32 46 550H165L280 240Q287 220 294 192Q301 164 306 146Q310 164 317 192Q324 220 331 240L439 550H554L286 -180Z"/><path id="m500o" d="M300 -9Q232 -9 182 17Q132 43 105 91Q78 139 78 204V346Q78 412 105 459Q132 507 182 533Q232 559 300 559Q368 559 418 533Q468 507 495 459Q522 412 522 346V204Q522 139 495 91Q468 43 418 17Q368 -9 300 -9ZM300 86Q355 86 385 117Q415 147 415 204V346Q415 404 385 434Q355 464 300 464Q246 464 216 434Q185 404 185 346V204Q185 147 216 117Q246 86 300 86Z"/><path id="m500u" d="M299 -10Q200 -10 141 48Q82 105 82 204V550H190V204Q190 147 219 116Q248 84 299 84Q351 84 380 116Q410 147 410 204V550H518V204Q518 105 458 47Q399 -10 299 -10Z"/><path id="m500r" d="M102 0V550H206V445H232L199 380Q199 469 238 515Q277 560 354 560Q442 560 494 505Q545 451 545 356V319H434V347Q434 406 404 438Q375 469 322 469Q269 469 240 437Q210 405 210 347V0Z"/><path id="m500t" d="M360 0Q285 0 243 41Q201 82 201 155V452H49V550H201V705H309V550H524V452H309V155Q309 98 364 98H514V0Z"/><path id="m500e" d="M300 -10Q233 -10 183 16Q132 43 105 91Q78 139 78 203V347Q78 412 105 459Q132 507 183 534Q233 560 300 560Q368 560 418 534Q468 507 495 459Q522 412 522 347V249H182V203Q182 142 213 110Q243 78 301 78Q348 78 377 94Q406 111 413 143H520Q508 73 448 32Q388 -10 300 -10ZM418 314V348Q418 408 388 441Q358 474 300 474Q243 474 212 441Q182 408 182 347V322L426 323Z"/><path id="m500s" d="M281 -9Q222 -9 177 10Q133 29 107 63Q82 96 78 142H186Q190 115 215 99Q240 82 281 82H324Q373 82 398 102Q423 122 423 155Q423 187 400 205Q378 224 334 230L263 241Q175 255 134 291Q92 328 92 400Q92 476 141 517Q191 559 288 559H326Q412 559 463 520Q515 480 522 414H414Q410 438 387 453Q365 468 326 468H288Q241 468 220 450Q198 433 198 399Q198 369 217 354Q236 339 276 333L349 321Q442 308 485 269Q529 231 529 158Q529 79 478 35Q426 -9 324 -9Z"/><path id="m500comma" d="M158 -160 238 151H382L252 -160Z"/><path id="m500w" d="M113 0 28 550H119L170 187Q174 162 177 131Q181 101 183 81Q185 101 190 131Q194 161 198 187L255 550H346L402 187Q406 161 410 131Q415 100 417 80Q419 101 424 131Q428 162 432 187L484 550H572L484 0H370L316 359Q312 387 307 418Q302 450 300 469Q297 450 293 418Q288 387 284 359L228 0Z"/><path id="m500i" d="M81 0V98H274V452H106V550H379V98H556V0ZM316 645Q281 645 260 664Q240 682 240 713Q240 745 260 763Q281 782 316 782Q352 782 373 763Q393 745 393 713Q393 682 373 664Q352 645 316 645Z"/><path id="m500n" d="M84 0V550H191V445H217L191 420Q191 486 230 523Q269 560 338 560Q420 560 469 508Q518 455 518 366V0H410V354Q410 408 381 437Q352 466 302 466Q251 466 222 436Q192 405 192 347V0Z"/><path id="m500d" d="M261 -10Q178 -10 128 46Q78 102 78 197V352Q78 448 128 504Q178 560 261 560Q329 560 369 522Q409 485 409 420L386 445H411L408 573V730H516V0H409V105H386L409 130Q409 65 369 27Q329 -10 261 -10ZM298 84Q349 84 379 115Q408 147 408 203V347Q408 403 379 435Q349 466 298 466Q245 466 215 436Q185 405 185 347V203Q185 145 215 114Q245 84 298 84Z"/><path id="m500a" d="M245 -10Q159 -10 110 35Q60 79 60 156Q60 234 112 279Q165 323 257 323H410V374Q410 419 382 444Q354 469 303 469Q258 469 228 450Q198 430 193 398H87Q96 472 155 516Q215 560 306 560Q404 560 461 510Q518 461 518 376V0H413V101H395L413 121Q413 61 367 25Q321 -10 245 -10ZM277 73Q335 73 373 102Q410 132 410 178V250H259Q217 250 193 227Q168 204 168 164Q168 122 197 97Q226 73 277 73Z"/><path id="m500c" d="M304 -10Q236 -10 184 16Q133 41 105 90Q78 138 78 203V347Q78 413 105 461Q133 509 184 534Q236 560 304 560Q403 560 463 508Q523 456 526 366H418Q415 413 385 439Q355 465 304 465Q249 465 217 435Q185 404 185 348V203Q185 147 217 116Q249 85 304 85Q355 85 385 111Q415 137 418 184H526Q523 94 463 42Q403 -10 304 -10Z"/><path id="m500hyphen" d="M140 281V379H460V281Z"/><path id="m700h" d="M77 0V730H202V550L199 445H233L199 416Q199 484 239 522Q278 560 347 560Q428 560 477 506Q525 452 525 361V0H400V348Q400 398 374 425Q348 452 301 452Q255 452 228 424Q202 396 202 344V0Z"/><path id="m700o" d="M300 -9Q230 -9 178 17Q127 44 99 92Q70 141 70 207V343Q70 409 99 458Q127 506 178 533Q230 559 300 559Q371 559 422 533Q473 506 501 458Q530 409 530 344V207Q530 141 501 92Q473 44 422 17Q371 -9 300 -9ZM300 100Q350 100 377 128Q405 155 405 207V343Q405 396 377 423Q350 450 300 450Q251 450 223 423Q195 396 195 343V207Q195 155 223 128Q251 100 300 100Z"/><path id="m700s" d="M279 -9Q216 -9 169 11Q122 31 96 66Q69 102 67 150H192Q194 124 218 108Q241 92 279 92H323Q369 92 392 110Q415 128 415 159Q415 188 395 204Q374 221 331 226L263 236Q169 249 125 286Q81 323 81 397Q81 474 133 517Q185 559 286 559H324Q416 559 471 518Q526 477 530 408H405Q402 430 381 444Q359 458 324 458H286Q243 458 223 442Q204 427 204 397Q204 369 221 356Q238 342 276 336L347 326Q445 312 491 274Q538 235 538 160Q538 80 483 35Q429 -9 323 -9Z"/><path id="m700t" d="M360 0Q281 0 237 44Q192 88 192 165V437H43V550H192V705H318V550H529V437H318V165Q318 113 369 113H519V0Z"/><path id="m500colon" d="M300 401Q261 401 236 423Q212 445 212 481Q212 517 236 538Q261 560 300 560Q340 560 364 538Q388 517 388 481Q388 445 364 423Q340 401 300 401ZM300 -10Q261 -10 236 12Q212 34 212 69Q212 106 236 127Q261 149 300 149Q340 149 364 127Q388 106 388 69Q388 34 364 12Q340 -10 300 -10Z"/><path id="m500g" d="M156 -180V-87H325Q367 -87 388 -67Q408 -47 408 -8V47L410 149H387L409 169Q409 106 370 70Q330 34 263 34Q178 34 129 90Q80 146 80 241V353Q80 448 129 504Q178 560 263 560Q330 560 370 524Q409 487 409 424L387 445H409L408 550H515V-10Q515 -89 465 -134Q415 -180 326 -180ZM298 127Q349 127 379 159Q408 190 408 246V347Q408 403 379 435Q349 466 298 466Q245 466 216 436Q188 405 188 347V246Q188 189 216 158Q245 127 298 127Z"/><path id="m500underscore" d="M60 -119V-25H540V-119Z"/><path id="m500m" d="M59 0V550H149V480H169L154 459Q154 505 179 533Q204 560 246 560Q291 560 315 525Q340 490 340 429L316 480H354L338 459Q338 505 363 533Q389 560 432 560Q483 560 512 521Q541 483 541 419V0H445V416Q445 447 432 464Q418 481 393 481Q368 481 355 464Q341 448 341 417V0H260V416Q260 448 246 464Q232 481 206 481Q181 481 168 464Q156 448 156 417V0Z"/><path id="m700v" d="M220 0 39 550H167L272 216Q281 186 290 154Q298 122 302 103Q307 122 315 154Q323 186 331 215L434 550H561L381 0Z"/><path id="m700a" d="M239 -10Q154 -10 105 35Q56 80 56 156Q56 237 110 281Q164 325 263 325H400V372Q400 412 374 434Q348 457 303 457Q262 457 235 439Q208 421 203 390H81Q90 468 151 514Q212 560 307 560Q408 560 466 510Q525 459 525 373V0H404V96H384L404 123Q404 62 359 26Q314 -10 239 -10ZM280 84Q333 84 367 111Q400 138 400 181V248H265Q227 248 204 226Q181 204 181 168Q181 129 207 106Q234 84 280 84Z"/><path id="m700r" d="M94 0V550H212V445H243L206 381Q206 470 246 515Q286 560 364 560Q453 560 504 505Q555 450 555 353V313H424V344Q424 397 397 426Q369 455 321 455Q272 455 246 426Q219 397 219 344V0Z"/><path id="m700e" d="M301 -10Q231 -10 179 17Q127 44 99 92Q70 141 70 206V344Q70 409 99 458Q127 506 179 533Q231 560 301 560Q370 560 422 533Q473 506 501 458Q530 409 530 344V245H191V206Q191 148 219 119Q247 89 302 89Q344 89 370 104Q396 118 403 146H526Q512 75 450 33Q389 -10 301 -10ZM409 315V345Q409 402 382 432Q355 463 301 463Q247 463 219 432Q191 401 191 344V323L418 325Z"/><path id="m500p" d="M84 -180V550H191V445H214L191 420Q191 485 231 523Q272 560 340 560Q423 560 473 504Q522 449 522 353V198Q522 134 500 88Q477 41 437 15Q396 -10 340 -10Q273 -10 232 28Q191 65 191 130L214 105H189L192 -23V-180ZM303 84Q356 84 385 114Q415 145 415 203V347Q415 405 385 436Q356 466 303 466Q252 466 222 435Q192 403 192 347V203Q192 147 222 115Q252 84 303 84Z"/><path id="m700b" d="M347 -10Q279 -10 239 28Q199 67 199 134L227 105H199V0H77V730H202V576L198 445H227L199 416Q199 483 239 522Q279 560 347 560Q430 560 480 503Q530 446 530 349V200Q530 104 480 47Q430 -10 347 -10ZM303 98Q351 98 378 126Q405 154 405 206V344Q405 396 378 424Q351 452 303 452Q256 452 229 423Q202 395 202 344V206Q202 155 229 127Q256 98 303 98Z"/><g id="mk_0F8630_67B028"><g transform="translate(0,1191) scale(1,-1)"><path fill="#0F8630" d="M282 1190 c-6 -1 -16 -2 -23 -2 -6 -1 -12 -2 -13 -2 -1 0 -1 -7 -1 -36 l0 -36 5 0 c28 4 78 4 101 2 60 -6 109 -24 158 -56 70 -47 112 -105 145 -197 l6 -16 8 -2 c43 -7 89 -35 119 -73 43 -54 60 -116 51 -192 0 -7 -1 -14 -1 -14 0 -1 15 -1 36 -1 l35 1 1 3 c7 33 7 74 0 108 -13 57 -49 123 -91 165 -14 14 -23 21 -40 33 -19 13 -33 19 -62 27 -1 1 -5 11 -9 23 -11 31 -15 39 -23 54 -60 106 -167 181 -290 204 -36 7 -78 10 -112 7z M265 1045 c-57 -5 -105 -26 -151 -65 -46 -39 -91 -103 -105 -152 -7 -24 -11 -58 -8 -80 l0 -5 35 0 35 0 0 20 c1 44 11 71 37 108 23 31 49 58 74 75 34 23 67 32 116 31 35 -1 66 -8 100 -23 71 -31 100 -63 128 -141 4 -12 6 -16 7 -16 1 0 16 5 33 12 l31 13 0 3 c-2 7 -11 34 -17 47 -37 81 -120 147 -210 167 -23 5 -34 6 -65 7 -17 0 -35 -1 -40 -1z M253 908 c-3 0 -6 -1 -6 -1 -2 -1 -2 -5 -2 -32 l0 -31 17 0 c66 -3 109 -30 138 -87 2 -5 5 -10 5 -11 1 -1 4 0 42 17 l14 5 -1 4 c0 2 -2 8 -4 13 -18 50 -64 94 -118 112 -25 9 -64 14 -85 11z"/><path fill="#67B028" d="M200 768 c-45 -8 -75 -42 -87 -99 -11 -48 -8 -121 7 -170 l2 -8 7 0 c14 -2 64 -2 72 -1 9 1 9 0 1 -7 -9 -8 -20 -14 -48 -24 -8 -3 -15 -5 -16 -6 l-3 -1 3 -6 c11 -21 25 -41 60 -83 27 -32 40 -50 52 -73 24 -45 55 -71 97 -81 17 -4 19 -4 19 -2 2 7 0 22 -5 47 -2 9 -4 16 -4 17 0 0 5 -1 11 -4 87 -34 201 -15 303 51 34 22 45 32 73 71 28 38 45 50 65 49 4 -1 12 -1 19 -2 38 -3 80 8 108 28 9 7 9 7 7 15 -1 5 -1 5 -4 5 -9 -2 -22 -2 -30 -1 -9 1 -17 4 -35 12 -21 9 -25 10 -41 11 -14 0 -25 -2 -35 -5 -2 -1 -2 0 -3 5 -5 22 -16 41 -37 60 -30 27 -39 38 -46 56 -1 3 -3 6 -3 6 -1 1 -8 -11 -10 -18 -13 -39 7 -101 43 -135 l9 -8 -5 -2 c-2 -1 -8 -6 -12 -11 -34 -35 -42 -41 -58 -47 -24 -8 -46 -6 -81 8 -40 16 -73 38 -105 69 -32 33 -58 70 -89 129 -51 96 -105 148 -162 156 -11 1 -30 1 -39 -1z"/></g></g></defs><rect width="1280" height="320" fill="#101316"/><use href="#mk_0F8630_67B028" transform="translate(57.4,53.0) scale(0.21704)"/><g fill="#e0393e"><use href="#m800hyphen" transform="matrix(0.028 0 0 -0.028 322.0 96.0)"/><use href="#m800hyphen" transform="matrix(0.028 0 0 -0.028 338.8 96.0)"/><use href="#m800hyphen" transform="matrix(0.028 0 0 -0.028 355.6 96.0)"/></g><g fill="#f3f5f7"><use href="#m800g" transform="matrix(0.06 0 0 -0.06 320.0 164.0)"/><use href="#m800e" transform="matrix(0.06 0 0 -0.06 356.0 164.0)"/><use href="#m800n" transform="matrix(0.06 0 0 -0.06 392.0 164.0)"/><use href="#m800i" transform="matrix(0.06 0 0 -0.06 428.0 164.0)"/><use href="#m800e" transform="matrix(0.06 0 0 -0.06 464.0 164.0)"/><use href="#m800a" transform="matrix(0.06 0 0 -0.06 500.0 164.0)"/><use href="#m800c" transform="matrix(0.06 0 0 -0.06 536.0 164.0)"/><use href="#m800s" transform="matrix(0.06 0 0 -0.06 572.0 164.0)"/><use href="#m800hyphen" transform="matrix(0.06 0 0 -0.06 608.0 164.0)"/><use href="#m800a" transform="matrix(0.06 0 0 -0.06 644.0 164.0)"/><use href="#m800n" transform="matrix(0.06 0 0 -0.06 680.0 164.0)"/><use href="#m800s" transform="matrix(0.06 0 0 -0.06 716.0 164.0)"/><use href="#m800i" transform="matrix(0.06 0 0 -0.06 752.0 164.0)"/><use href="#m800b" transform="matrix(0.06 0 0 -0.06 788.0 164.0)"/><use href="#m800l" transform="matrix(0.06 0 0 -0.06 824.0 164.0)"/><use href="#m800e" transform="matrix(0.06 0 0 -0.06 860.0 164.0)"/></g><g fill="#76818b"><use href="#m500numbersign" transform="matrix(0.023 0 0 -0.023 322.0 212.0)"/><use href="#m500y" transform="matrix(0.023 0 0 -0.023 349.6 212.0)"/><use href="#m500o" transform="matrix(0.023 0 0 -0.023 363.4 212.0)"/><use href="#m500u" transform="matrix(0.023 0 0 -0.023 377.2 212.0)"/><use href="#m500r" transform="matrix(0.023 0 0 -0.023 391.0 212.0)"/><use href="#m500r" transform="matrix(0.023 0 0 -0.023 418.6 212.0)"/><use href="#m500o" transform="matrix(0.023 0 0 -0.023 432.4 212.0)"/><use href="#m500u" transform="matrix(0.023 0 0 -0.023 446.2 212.0)"/><use href="#m500t" transform="matrix(0.023 0 0 -0.023 460.0 212.0)"/><use href="#m500e" transform="matrix(0.023 0 0 -0.023 473.8 212.0)"/><use href="#m500r" transform="matrix(0.023 0 0 -0.023 487.6 212.0)"/><use href="#m500s" transform="matrix(0.023 0 0 -0.023 501.4 212.0)"/><use href="#m500comma" transform="matrix(0.023 0 0 -0.023 515.2 212.0)"/><use href="#m500w" transform="matrix(0.023 0 0 -0.023 542.8 212.0)"/><use href="#m500r" transform="matrix(0.023 0 0 -0.023 556.6 212.0)"/><use href="#m500i" transform="matrix(0.023 0 0 -0.023 570.4 212.0)"/><use href="#m500t" transform="matrix(0.023 0 0 -0.023 584.2 212.0)"/><use href="#m500t" transform="matrix(0.023 0 0 -0.023 598.0 212.0)"/><use href="#m500e" transform="matrix(0.023 0 0 -0.023 611.8 212.0)"/><use href="#m500n" transform="matrix(0.023 0 0 -0.023 625.6 212.0)"/><use href="#m500d" transform="matrix(0.023 0 0 -0.023 653.2 212.0)"/><use href="#m500o" transform="matrix(0.023 0 0 -0.023 667.0 212.0)"/><use href="#m500w" transform="matrix(0.023 0 0 -0.023 680.8 212.0)"/><use href="#m500n" transform="matrix(0.023 0 0 -0.023 694.6 212.0)"/><use href="#m500a" transform="matrix(0.023 0 0 -0.023 722.2 212.0)"/><use href="#m500s" transform="matrix(0.023 0 0 -0.023 736.0 212.0)"/><use href="#m500c" transform="matrix(0.023 0 0 -0.023 763.6 212.0)"/><use href="#m500o" transform="matrix(0.023 0 0 -0.023 777.4 212.0)"/><use href="#m500d" transform="matrix(0.023 0 0 -0.023 791.2 212.0)"/><use href="#m500e" transform="matrix(0.023 0 0 -0.023 805.0 212.0)"/></g><rect x="946" y="84" width="3" height="150" fill="#2c343b"/><g fill="#76818b"><use href="#m500hyphen" transform="matrix(0.021 0 0 -0.021 972.0 118.0)"/></g><g fill="#9be07a"><use href="#m700h" transform="matrix(0.021 0 0 -0.021 997.2 118.0)"/><use href="#m700o" transform="matrix(0.021 0 0 -0.021 1009.8 118.0)"/><use href="#m700s" transform="matrix(0.021 0 0 -0.021 1022.4 118.0)"/><use href="#m700t" transform="matrix(0.021 0 0 -0.021 1035.0 118.0)"/><use href="#m700s" transform="matrix(0.021 0 0 -0.021 1047.6 118.0)"/></g><g fill="#dfe6ec"><use href="#m500colon" transform="matrix(0.021 0 0 -0.021 1060.2 118.0)"/><use href="#m500t" transform="matrix(0.021 0 0 -0.021 1085.4 118.0)"/><use href="#m500a" transform="matrix(0.021 0 0 -0.021 1098.0 118.0)"/><use href="#m500g" transform="matrix(0.021 0 0 -0.021 1110.6 118.0)"/><use href="#m500underscore" transform="matrix(0.021 0 0 -0.021 1123.2 118.0)"/><use href="#m500m" transform="matrix(0.021 0 0 -0.021 1135.8 118.0)"/><use href="#m500a" transform="matrix(0.021 0 0 -0.021 1148.4 118.0)"/><use href="#m500n" transform="matrix(0.021 0 0 -0.021 1161.0 118.0)"/><use href="#m500a" transform="matrix(0.021 0 0 -0.021 1173.6 118.0)"/><use href="#m500g" transform="matrix(0.021 0 0 -0.021 1186.2 118.0)"/><use href="#m500e" transform="matrix(0.021 0 0 -0.021 1198.8 118.0)"/><use href="#m500d" transform="matrix(0.021 0 0 -0.021 1211.4 118.0)"/></g><g fill="#76818b"></g><g fill="#9be07a"><use href="#m700v" transform="matrix(0.021 0 0 -0.021 997.2 152.0)"/><use href="#m700a" transform="matrix(0.021 0 0 -0.021 1009.8 152.0)"/><use href="#m700r" transform="matrix(0.021 0 0 -0.021 1022.4 152.0)"/><use href="#m700s" transform="matrix(0.021 0 0 -0.021 1035.0 152.0)"/></g><g fill="#dfe6ec"><use href="#m500colon" transform="matrix(0.021 0 0 -0.021 1047.6 152.0)"/></g><g fill="#76818b"></g><g fill="#9be07a"><use href="#m700s" transform="matrix(0.021 0 0 -0.021 1022.4 186.0)"/><use href="#m700t" transform="matrix(0.021 0 0 -0.021 1035.0 186.0)"/><use href="#m700a" transform="matrix(0.021 0 0 -0.021 1047.6 186.0)"/><use href="#m700t" transform="matrix(0.021 0 0 -0.021 1060.2 186.0)"/><use href="#m700e" transform="matrix(0.021 0 0 -0.021 1072.8 186.0)"/></g><g fill="#dfe6ec"><use href="#m500colon" transform="matrix(0.021 0 0 -0.021 1085.4 186.0)"/><use href="#m500p" transform="matrix(0.021 0 0 -0.021 1110.6 186.0)"/><use href="#m500r" transform="matrix(0.021 0 0 -0.021 1123.2 186.0)"/><use href="#m500e" transform="matrix(0.021 0 0 -0.021 1135.8 186.0)"/><use href="#m500s" transform="matrix(0.021 0 0 -0.021 1148.4 186.0)"/><use href="#m500e" transform="matrix(0.021 0 0 -0.021 1161.0 186.0)"/><use href="#m500n" transform="matrix(0.021 0 0 -0.021 1173.6 186.0)"/><use href="#m500t" transform="matrix(0.021 0 0 -0.021 1186.2 186.0)"/></g><g fill="#76818b"></g><g fill="#9be07a"><use href="#m700r" transform="matrix(0.021 0 0 -0.021 1022.4 220.0)"/><use href="#m700e" transform="matrix(0.021 0 0 -0.021 1035.0 220.0)"/><use href="#m700b" transform="matrix(0.021 0 0 -0.021 1047.6 220.0)"/><use href="#m700o" transform="matrix(0.021 0 0 -0.021 1060.2 220.0)"/><use href="#m700o" transform="matrix(0.021 0 0 -0.021 1072.8 220.0)"/><use href="#m700t" transform="matrix(0.021 0 0 -0.021 1085.4 220.0)"/></g><g fill="#dfe6ec"><use href="#m500colon" transform="matrix(0.021 0 0 -0.021 1098.0 220.0)"/><use href="#m500t" transform="matrix(0.021 0 0 -0.021 1123.2 220.0)"/><use href="#m500r" transform="matrix(0.021 0 0 -0.021 1135.8 220.0)"/><use href="#m500u" transform="matrix(0.021 0 0 -0.021 1148.4 220.0)"/><use href="#m500e" transform="matrix(0.021 0 0 -0.021 1161.0 220.0)"/></g></svg>